<svg xmlns="http://www.w3.org/2000/svg" viewBox="0 0 64 64" role="img" aria-label="ИТ-М">
  <defs>
    <linearGradient id="g" x1="10" y1="0" x2="54" y2="64" gradientUnits="userSpaceOnUse">
      <stop stop-color="#2f8f4f"/>
      <stop offset="1" stop-color="#1a5f32"/>
    </linearGradient>
  </defs>
  <circle cx="32" cy="32" r="32" fill="url(#g)"/>
  <circle cx="32" cy="32" r="27.2" fill="none" stroke="#fff" stroke-width="2"/>
  <g fill="none" stroke="#fff" stroke-width="2.1" stroke-linecap="round" stroke-linejoin="round">
    <path d="M19 49 V31.5 C19 19.5 25.2 13 32 13 C38.8 13 45 19.5 45 31.5 V49"/>
    <path d="M19 49 H45"/>
    <path d="M23.2 49 V32 C23.2 22.2 27 17.2 32 17.2 C37 17.2 40.8 22.2 40.8 32 V49"/>
    <path d="M32 17.2 C29.2 23.5 25.5 27.2 23.2 30"/>
    <path d="M32 17.2 C34.8 23.5 38.5 27.2 40.8 30"/>
    <path d="M26.2 21.5 C28.8 25.8 32 28 32 28 C32 28 35.2 25.8 37.8 21.5"/>
    <path d="M23.2 34.2 H40.8"/>
    <path d="M19 41 H45"/>
    <path d="M32 28 V49"/>
    <path d="M28.4 34.2 V41"/>
    <path d="M35.6 34.2 V41"/>
    <path d="M23.2 41 C26 45.2 28.8 47 32 47 C35.2 47 38 45.2 40.8 41"/>
  </g>
</svg>
